<?xml version="1.0" encoding="UTF-8" standalone="no"?>
<!DOCTYPE svg PUBLIC "-//W3C//DTD SVG 1.1//EN" "http://www.w3.org/Graphics/SVG/1.1/DTD/svg11.dtd">
<svg version="1.1" xmlns="http://www.w3.org/2000/svg" xmlns:xlink="http://www.w3.org/1999/xlink" preserveAspectRatio="xMidYMid meet" viewBox="0 0 745 745" width="745" height="745"><defs><path d="M429.69 596.25C425.37 596.25 421.88 599.75 421.88 604.06C421.88 607.62 424.25 610.62 427.49 611.56C427.43 613.13 427.08 614.35 426.42 615.17C424.91 617.04 421.6 617.35 418.1 617.68C415.34 617.93 412.49 618.2 410.16 619.33C410.16 617.92 410.16 606.67 410.16 605.26C413.33 604.27 415.63 601.31 415.63 597.81C415.63 593.5 412.13 590 407.81 590C403.5 590 400 593.5 400 597.81C400 601.31 402.29 604.27 405.47 605.26C405.47 607.21 405.47 622.78 405.47 624.73C402.29 625.73 400 628.69 400 632.19C400 636.5 403.5 640 407.81 640C412.13 640 415.63 636.5 415.63 632.19C415.63 628.87 413.55 626.03 410.63 624.9C410.93 624.39 411.39 623.95 412.08 623.59C413.66 622.79 416.03 622.58 418.54 622.34C422.66 621.96 427.32 621.52 430.08 618.11C431.45 616.41 432.14 614.22 432.19 611.47C435.27 610.42 437.5 607.5 437.5 604.06C437.5 599.75 434 596.25 429.69 596.25ZM409.38 597.81C409.38 598.67 408.67 599.38 407.81 599.38C406.95 599.38 406.25 598.67 406.25 597.81C406.25 596.95 406.95 596.25 407.81 596.25C408.67 596.25 409.38 596.95 409.38 597.81ZM406.25 632.19C406.25 631.33 406.95 630.63 407.81 630.63C408.67 630.63 409.38 631.33 409.38 632.19C409.38 633.05 408.67 633.75 407.81 633.75C406.95 633.75 406.25 633.05 406.25 632.19ZM431.25 604.06C431.25 604.92 430.55 605.63 429.69 605.63C428.83 605.63 428.13 604.92 428.13 604.06C428.13 603.2 428.83 602.5 429.69 602.5C430.55 602.5 431.25 603.2 431.25 604.06Z" id="b18WRWTVyJ"></path><path d="M607.02 38.58C606.52 38.44 606.24 37.91 606.38 37.41C607.45 33.74 615.98 4.36 617.05 0.68C617.19 0.18 617.71 -0.1 618.21 0.04C618.69 0.18 622.5 1.29 622.98 1.43C623.48 1.57 623.76 2.09 623.62 2.59C622.55 6.26 614.02 35.65 612.95 39.32C612.8 39.82 612.29 40.11 611.79 39.96C610.84 39.68 607.5 38.72 607.02 38.58ZM606.28 27.57C606.64 27.19 606.62 26.58 606.22 26.23C605.75 25.81 603.39 23.74 599.14 20C603.39 16.27 605.75 14.19 606.22 13.78C606.62 13.42 606.65 12.82 606.28 12.43C605.94 12.07 603.22 9.17 602.88 8.81C602.53 8.43 601.94 8.41 601.56 8.77C600.43 9.82 591.42 18.26 590.3 19.31C589.9 19.68 589.9 20.31 590.3 20.68C591.42 21.74 600.43 30.18 601.56 31.24C601.94 31.59 602.53 31.58 602.88 31.2C603.56 30.47 605.94 27.93 606.28 27.57ZM639.7 20.69C640.1 20.32 640.1 19.69 639.7 19.32C638.58 18.27 629.57 9.82 628.44 8.76C628.07 8.41 627.48 8.43 627.12 8.8C626.78 9.16 624.06 12.06 623.72 12.42C623.36 12.81 623.38 13.42 623.78 13.77C624.25 14.18 626.61 16.26 630.86 20C626.61 23.74 624.25 25.81 623.78 26.23C623.38 26.58 623.35 27.19 623.72 27.57C624.06 27.93 626.78 30.83 627.12 31.2C627.47 31.58 628.06 31.59 628.44 31.24C630.7 29.13 638.58 21.74 639.7 20.69Z" id="gtUfTr9jR"></path><path d="M217.67 26.36C217.78 33.42 216.87 40.22 214.96 47.02C214.7 47.97 215.17 50 217.22 50C218.24 50 219.18 49.32 219.48 48.28C220.8 43.61 222.51 36.04 222.35 26.36C222.35 25.07 221.31 24.02 220.01 24.02C218.72 24.02 217.67 25.07 217.67 26.36ZM209.85 25.91C209.93 30.59 209.49 35.27 208.55 39.83C208.29 41.09 209.1 42.34 210.37 42.6C211.64 42.86 212.87 42.04 213.14 40.78C214.15 35.89 214.62 30.86 214.54 25.83C214.5 23.3 216.49 20.71 219.86 20.72C222.92 20.77 225.44 23.2 225.48 26.14C225.56 30.83 225.21 35.55 224.45 40.16C224.24 41.43 225.1 42.64 226.38 42.85C228.33 43.18 229 41.38 229.07 40.92C229.88 36.03 230.25 31.04 230.17 26.07C230.09 20.62 225.49 16.12 219.93 16.04C213.95 16.03 209.77 20.63 209.85 25.91ZM205.82 14.44C203.32 17.52 201.98 21.41 202.04 25.38C202.1 29.05 201.8 32.73 201.15 36.32C200.92 37.6 201.76 38.82 203.04 39.05C205 39.39 205.68 37.6 205.76 37.16C206.46 33.27 206.79 29.28 206.73 25.31C206.68 22.39 207.62 19.66 209.46 17.4C210.27 16.4 210.12 14.92 209.12 14.11C208.11 13.29 206.64 13.44 205.82 14.44ZM215.34 8.5C214.08 8.8 213.3 10.06 213.6 11.33C213.9 12.58 215.16 13.36 216.42 13.07C217.5 12.81 218.61 12.7 219.74 12.71C227.1 12.82 233.19 18.71 233.3 25.85C233.36 29.55 233.17 33.28 232.75 36.94C232.61 38.23 233.53 39.39 234.82 39.54C236.45 39.73 237.31 38.38 237.41 37.48C237.85 33.59 238.05 29.68 237.99 25.77C237.83 16.13 229.68 8.17 219.81 8.02C218.3 7.98 216.79 8.16 215.34 8.5ZM241.63 18.09C240.36 18.37 239.57 19.62 239.85 20.89C240.31 22.98 240.32 24.54 240.3 26.9C240.29 28.2 241.33 29.25 242.63 29.27C242.63 29.27 242.65 29.27 242.65 29.27C243.93 29.27 244.98 28.23 244.99 26.94C245.01 24.78 245.03 22.63 244.42 19.88C244.14 18.62 242.91 17.81 241.63 18.09ZM219.69 0C212.87 -0.08 206.57 2.43 201.88 7.12C197.35 11.66 194.91 17.68 195.01 24.08C195.01 24.29 195 25.97 195 26.18C194.97 27.47 195.98 28.55 197.28 28.59C197.3 28.59 197.32 28.59 197.35 28.59C198.61 28.59 199.65 27.59 199.69 26.32C199.69 26.09 199.7 24.24 199.7 24.01C199.62 18.88 201.57 14.06 205.2 10.44C208.98 6.65 214.12 4.61 219.62 4.69C226.4 4.79 232.78 8.16 236.67 13.71C237.41 14.77 238.87 15.02 239.93 14.28C240.99 13.54 241.25 12.08 240.5 11.02C235.75 4.24 227.97 0.13 219.69 0Z" id="c8hfvoU7at"></path><path d="M24.22 248.43C10.82 248.43 0 237.61 0 224.22C0 210.82 10.82 200 24.22 200C30.74 200 36.23 202.39 40.46 206.34C39.8 206.97 34.52 212.04 33.86 212.67C25.24 204.36 9.21 210.6 9.21 224.22C9.21 232.66 15.96 239.51 24.22 239.51C33.81 239.51 37.4 232.63 37.97 229.07C37.05 229.07 32.47 229.07 24.22 229.07L24.22 220.74C38.05 220.74 45.73 220.74 47.27 220.74C47.5 221.98 47.65 223.17 47.65 224.78C47.65 238.6 38.19 248.43 24.22 248.43Z" id="d2g94TjgB"></path><path d="M0 415.78C0 429.16 10.84 440 24.22 440C37.59 440 48.43 429.16 48.43 415.78C48.43 402.41 37.59 391.57 24.22 391.57C10.84 391.57 0 402.41 0 415.78ZM28.32 406.41C28.32 408.67 26.48 410.51 24.22 410.51C21.95 410.51 20.12 408.67 20.12 406.41C20.12 404.14 21.95 402.31 24.22 402.31C26.48 402.31 28.32 404.14 28.32 406.41ZM28.51 428.28C27.65 428.28 20.78 428.28 19.92 428.28C19.27 428.28 18.75 427.76 18.75 427.11C18.75 426.88 18.75 425 18.75 424.77C18.75 424.12 19.27 423.6 19.92 423.6C20 423.6 20.39 423.6 21.09 423.6L21.09 417.35C20.39 417.35 20 417.35 19.92 417.35C19.27 417.35 18.75 416.82 18.75 416.17C18.75 415.94 18.75 414.07 18.75 413.83C18.75 413.18 19.27 412.66 19.92 412.66C20.55 412.66 25.54 412.66 26.17 412.66C26.82 412.66 27.34 413.18 27.34 413.83C27.34 414.48 27.34 417.74 27.34 423.6C28.04 423.6 28.44 423.6 28.51 423.6C29.16 423.6 29.69 424.12 29.69 424.77C29.69 424.92 29.69 425.7 29.69 427.11C29.34 427.89 28.94 428.28 28.51 428.28Z" id="a1HOI2j2Ii"></path><path d="M206.25 634.56C206.25 637.96 208.87 640 213.26 640C218.02 640 221.17 637.55 225 637.55C228.86 637.55 232.01 640 236.74 640C241.13 640 243.75 637.96 243.75 634.56C243.75 626.99 232.75 615 225 615C217.24 615 206.25 626.99 206.25 634.56ZM203.63 608.88C200.79 609.56 199.3 612.85 200.32 616.23C201.34 619.62 204.46 621.81 207.31 621.13C210.15 620.45 211.63 617.15 210.62 613.77C209.6 610.39 206.47 608.2 203.63 608.88ZM222.27 602.63C221.11 598.39 217.72 595.59 214.7 596.39C211.68 597.18 210.17 601.27 211.33 605.51C212.48 609.75 215.87 612.54 218.89 611.74C221.91 610.95 223.42 606.87 222.27 602.63ZM239.38 613.77C238.36 617.16 239.85 620.45 242.69 621.13C245.53 621.81 248.66 619.62 249.68 616.23C250.69 612.85 249.21 609.56 246.37 608.88C243.52 608.2 240.4 610.39 239.38 613.77ZM238.67 605.51C239.83 601.27 238.32 597.18 235.29 596.39C232.27 595.59 228.89 598.39 227.73 602.63C226.57 606.87 228.09 610.95 231.11 611.74C234.13 612.54 237.52 609.75 238.67 605.51Z" id="ed3YNs3vG"></path><path d="M415 425C413.62 425 412.5 426.12 412.5 427.5C412.5 428.5 412.5 436.5 412.5 437.5C412.5 438.88 413.62 440 415 440C416 440 424 440 425 440C426.38 440 427.5 438.88 427.5 437.5C427.5 436.5 427.5 428.5 427.5 427.5C427.5 426.12 426.38 425 425 425C423 425 416 425 415 425ZM407.5 400C406.5 400 398.5 400 397.5 400C396.12 400 395 401.12 395 402.5C395 403.5 395 411.5 395 412.5C395 413.88 396.12 415 397.5 415C398 415 400.49 415 404.98 415C408.41 421 410.31 424.33 410.69 425C411.56 423.51 413.16 422.5 415 422.5C415 422.5 415.01 422.5 415.02 422.5L410 413.71L410 410L427.5 410L427.5 405L410 405L410 402.5C409.25 400.83 408.42 400 407.5 400ZM432.5 400C431.12 400 430 401.12 430 402.5C430 403.5 430 411.5 430 412.5C430 413.88 431.12 415 432.5 415C433.5 415 441.5 415 442.5 415C443.88 415 445 413.88 445 412.5C445 411.5 445 403.5 445 402.5C445 401.12 443.88 400 442.5 400C440.5 400 433.5 400 432.5 400Z" id="b19sILGZX"></path><path d="M18.75 615L18.75 596.25L0 596.25L0 615L18.75 615ZM12.5 602.5L12.5 608.75L6.25 608.75L6.25 602.5L12.5 602.5ZM25 615L43.75 615L43.75 596.25L25 596.25L25 615ZM31.25 608.75L31.25 602.5L37.5 602.5L37.5 608.75L31.25 608.75ZM18.75 640L18.75 621.25L0 621.25L0 640L18.75 640ZM12.5 627.5L12.5 633.75L6.25 633.75L6.25 627.5L12.5 627.5ZM43.75 621.25L43.75 633.75L34.37 633.75L34.37 630.63L31.25 630.63L31.25 640L25 640L25 621.25L34.37 621.25L34.37 624.38L40.62 624.38L40.62 621.25L43.75 621.25ZM43.75 636.88L43.75 640L40.62 640L40.62 636.88L43.75 636.88ZM37.5 636.88L37.5 640L34.37 640L34.37 636.88L37.5 636.88Z" id="cJLKf2vU"></path><path d="M629.58 423.49C629.15 423.05 628.55 422.81 627.92 422.81C627.77 422.81 626.49 422.81 626.33 422.81C629.03 419.36 630.63 415.03 630.63 410.31C630.63 399.09 621.54 390 610.32 390C599.1 390 590.01 399.09 590.01 410.31C590.01 421.53 599.1 430.62 610.32 430.62C615.03 430.62 619.37 429.02 622.82 426.32C622.82 426.48 622.82 427.76 622.82 427.92C622.82 428.54 623.06 429.14 623.5 429.58C624.47 430.55 632.26 438.34 633.24 439.31C634.15 440.23 635.64 440.23 636.55 439.31C636.82 439.04 639.03 436.82 639.31 436.55C640.23 435.63 640.23 434.15 639.32 433.23C637.37 431.28 630.56 424.47 629.58 423.49ZM597.82 410.31C597.82 403.41 603.4 397.81 610.32 397.81C617.22 397.81 622.82 403.4 622.82 410.31C622.82 417.21 617.23 422.81 610.32 422.81C603.41 422.81 597.82 417.22 597.82 410.31Z" id="c10XAxzRYL"></path><path d="M605.63 630.63C605.63 629.69 605.63 629.17 605.63 629.06C605.63 628.2 604.92 627.5 604.07 627.5C603.75 627.5 601.25 627.5 600.94 627.5C600.08 627.5 599.38 628.2 599.38 629.06C599.38 629.17 599.38 629.69 599.38 630.63C594.69 630.63 592.09 630.63 591.57 630.63C590.71 630.63 590 631.33 590 632.19C590 632.5 590 635 590 635.31C590 636.17 590.71 636.88 591.57 636.88C592.09 636.88 594.69 636.88 599.38 636.88C599.38 637.81 599.38 638.33 599.38 638.44C599.38 639.3 600.08 640 600.94 640C601.25 640 603.75 640 604.07 640C604.92 640 605.63 639.3 605.63 638.44C605.63 638.33 605.63 637.81 605.63 636.88C625.31 636.88 636.25 636.88 638.44 636.88C639.3 636.88 640 636.17 640 635.31C640 635 640 632.5 640 632.19C640 631.33 639.3 630.63 638.44 630.63C634.06 630.63 623.13 630.63 605.63 630.63ZM630.63 615C630.63 614.07 630.63 613.54 630.63 613.44C630.63 612.58 629.92 611.88 629.06 611.88C628.75 611.88 626.25 611.88 625.94 611.88C625.08 611.88 624.38 612.58 624.38 613.44C624.38 613.54 624.38 614.07 624.38 615C604.69 615 593.75 615 591.57 615C590.71 615 590 615.71 590 616.56C590 616.88 590 619.38 590 619.69C590 620.55 590.71 621.25 591.57 621.25C593.75 621.25 604.69 621.25 624.38 621.25C624.38 622.19 624.38 622.71 624.38 622.81C624.38 623.67 625.08 624.38 625.94 624.38C626.25 624.38 628.75 624.38 629.06 624.38C629.92 624.38 630.63 623.67 630.63 622.81C630.63 622.71 630.63 622.19 630.63 621.25C635.31 621.25 637.92 621.25 638.44 621.25C639.3 621.25 640 620.55 640 619.69C640 619.38 640 616.88 640 616.56C640 615.71 639.3 615 638.44 615C637.4 615 634.79 615 630.63 615ZM618.13 599.38C618.13 598.44 618.13 597.92 618.13 597.82C618.13 596.96 617.42 596.25 616.56 596.25C616.25 596.25 613.75 596.25 613.44 596.25C612.58 596.25 611.88 596.96 611.88 597.82C611.88 597.92 611.88 598.44 611.88 599.38C599.69 599.38 592.92 599.38 591.57 599.38C590.71 599.38 590 600.08 590 600.94C590 601.25 590 603.75 590 604.07C590 604.93 590.71 605.63 591.57 605.63C592.92 605.63 599.69 605.63 611.88 605.63C611.88 606.57 611.88 607.09 611.88 607.19C611.88 608.05 612.58 608.75 613.44 608.75C613.75 608.75 616.25 608.75 616.56 608.75C617.42 608.75 618.13 608.05 618.13 607.19C618.13 607.09 618.13 606.57 618.13 605.63C630.31 605.63 637.08 605.63 638.44 605.63C639.3 605.63 640 604.93 640 604.07C640 603.75 640 601.25 640 600.94C640 600.08 639.3 599.38 638.44 599.38C635.73 599.38 628.96 599.38 618.13 599.38Z" id="a1pJeR462G"></path><path d="M229.38 225C237.34 220.4 241.77 217.85 242.65 217.34C243.4 216.91 243.66 215.95 243.23 215.2C242.91 214.66 240.41 210.33 240.1 209.79C239.67 209.05 238.71 208.79 237.96 209.22C237.08 209.73 232.65 212.28 224.69 216.88C224.69 207.69 224.69 202.58 224.69 201.56C224.69 200.7 223.99 200 223.13 200C222.5 200 217.5 200 216.87 200C216.01 200 215.31 200.7 215.31 201.56C215.31 202.58 215.31 207.69 215.31 216.88C207.35 212.28 202.92 209.73 202.04 209.22C201.29 208.79 200.33 209.05 199.9 209.79C199.59 210.33 197.09 214.66 196.77 215.2C196.34 215.95 196.6 216.91 197.35 217.34C198.23 217.85 202.66 220.4 210.62 225C202.66 229.59 198.23 232.15 197.35 232.66C196.6 233.09 196.34 234.04 196.77 234.79C197.09 235.33 199.59 239.66 199.9 240.2C200.33 240.95 201.29 241.21 202.04 240.78C202.92 240.26 207.35 237.71 215.31 233.12C215.31 242.31 215.31 247.41 215.31 248.43C215.31 249.3 216.01 250 216.87 250C217.5 250 222.5 250 223.13 250C223.99 250 224.69 249.3 224.69 248.43C224.69 247.41 224.69 242.31 224.69 233.12C232.65 237.71 237.08 240.26 237.96 240.77C238.71 241.21 239.67 240.95 240.1 240.2C240.41 239.66 242.91 235.33 243.23 234.79C243.66 234.04 243.4 233.09 242.65 232.66C240.88 231.63 236.46 229.08 229.38 225Z" id="b5MfGuVSuW"></path><path d="M399.97 239.01C399.24 239.74 398.05 239.74 397.32 239.01C397.14 238.83 395.73 237.42 395.55 237.24C394.82 236.51 394.82 235.32 395.55 234.59C396.35 233.78 400.36 229.75 407.58 222.5C400.36 215.25 396.35 211.22 395.55 210.41C394.82 209.68 394.82 208.5 395.55 207.77C395.73 207.59 397.14 206.17 397.32 205.99C398.05 205.26 399.24 205.26 399.97 205.99C401.49 207.51 413.64 219.66 415.16 221.18C415.89 221.91 415.89 223.1 415.16 223.83C412.12 226.86 401.49 237.49 399.97 239.01ZM445 235.63C445 234.59 444.16 233.75 443.12 233.75C440.75 233.75 421.75 233.75 419.38 233.75C418.34 233.75 417.5 234.59 417.5 235.63C417.5 235.88 417.5 237.88 417.5 238.13C417.5 239.16 418.34 240 419.38 240C421.75 240 440.75 240 443.12 240C444.16 240 445 239.16 445 238.13C445 237.63 445 235.88 445 235.63Z" id="f1ttKCWibL"></path><path d="M35.82 10.1L32.05 10.1L32.05 20.82L35.82 20.82L35.82 10.1ZM25.46 10.06L21.68 10.06L21.68 20.77L25.46 20.77L25.46 10.06ZM9.43 0L0 8.93L0 41.07L11.31 41.07L11.31 50L20.74 41.07L28.28 41.07L45.25 25L45.25 0L9.43 0ZM41.48 23.22L33.94 30.36L26.39 30.36L19.79 36.6L19.79 30.36L11.31 30.36L11.31 3.57L41.48 3.57L41.48 23.22Z" id="fyo2DlDxM"></path><path d="M207.57 411.88C209.98 417.39 215.47 421.25 221.87 421.25C228.28 421.25 233.77 417.39 236.18 411.88C236.31 411.88 237.37 411.88 237.5 411.88C238.36 411.88 239.06 411.17 239.06 410.32C239.06 409.38 239.06 401.88 239.06 400.94C239.06 400.08 238.36 399.38 237.5 399.38C237.37 399.38 236.31 399.38 236.18 399.38C233.77 393.86 228.28 390 221.87 390C215.47 390 209.98 393.86 207.57 399.38C207.44 399.38 206.38 399.38 206.25 399.38C205.39 399.38 204.69 400.08 204.69 400.94C204.69 401.88 204.69 409.38 204.69 410.32C204.69 411.17 205.39 411.88 206.25 411.88C206.51 411.88 207.44 411.88 207.57 411.88ZM214.84 399.38C216.25 399.38 227.5 399.38 228.9 399.38C231.49 399.38 233.59 401.13 233.59 403.28C233.59 403.52 233.59 405.39 233.59 405.63C233.59 410.8 229.39 415 224.22 415C223.75 415 220 415 219.53 415C214.35 415 210.16 410.8 210.16 405.63C210.16 405.47 210.16 404.69 210.16 403.28C211.56 400.68 213.12 399.38 214.84 399.38ZM218.36 406.8L221.87 405.63L218.36 404.46L217.19 400.94L216.01 404.46L212.5 405.63L216.01 406.8L217.19 410.32L218.36 406.8ZM221.87 424.38C218.14 424.38 214.68 423.27 211.76 421.39C205.17 422.08 200 427.6 200 434.38C200 434.47 200 435.22 200 435.31C200 437.9 202.1 440 204.69 440C205.21 440 207.81 440 212.5 440C212.5 436.25 212.5 434.17 212.5 433.75C212.5 432.02 213.9 430.63 215.62 430.63C216.87 430.63 226.87 430.63 228.12 430.63C229.85 430.63 231.25 432.02 231.25 433.75C231.25 434.17 231.25 436.25 231.25 440C235.93 440 238.54 440 239.06 440C241.65 440 243.75 437.9 243.75 435.31C243.75 435.22 243.75 434.47 243.75 434.38C243.75 427.6 238.58 422.08 231.99 421.39C229.07 423.27 225.6 424.38 221.87 424.38ZM225 435.31C225 436.17 225.7 436.88 226.56 436.88C227.42 436.88 228.12 436.17 228.12 435.31C228.12 434.45 227.42 433.75 226.56 433.75C225.7 433.75 225 434.45 225 435.31ZM215.62 435.31C215.62 435.63 215.62 437.19 215.62 440L218.75 440C218.75 437.19 218.75 435.63 218.75 435.31C218.75 434.45 218.05 433.75 217.19 433.75C216.33 433.75 215.62 434.45 215.62 435.31Z" id="d1yjM0RsVz"></path><path d="M437.95 23.99C438.34 22.97 437.59 21.87 436.48 21.87C435.91 21.87 431.34 21.87 430.77 21.87C431.84 20.03 432.51 17.91 432.51 15.62C432.51 15.62 432.51 15.6 432.51 15.59C436.34 14.83 438.76 13.73 438.76 12.5C438.76 11.2 436.09 10.05 431.91 9.28C431.01 6.07 429.28 2.85 427.95 1.19C427.02 0.03 425.42 -0.33 424.09 0.33C423.82 0.47 421.67 1.54 421.4 1.68C420.52 2.12 419.48 2.12 418.6 1.68C418.33 1.54 416.18 0.47 415.91 0.33C414.58 -0.33 412.98 0.03 412.05 1.19C410.73 2.85 408.99 6.07 408.09 9.28C403.92 10.05 401.25 11.2 401.25 12.5C401.25 13.73 403.67 14.83 407.5 15.59C407.5 15.6 407.5 15.62 407.5 15.62C407.5 17.91 408.16 20.03 409.24 21.87C408.68 21.87 404.19 21.87 403.62 21.87C402.5 21.87 401.75 23.01 402.19 24.05C402.44 24.64 404.46 29.34 404.71 29.93C400.79 32.2 398.13 36.39 398.13 41.24C398.13 41.68 398.13 45.18 398.13 45.62C398.13 48.03 400.09 49.99 402.5 49.99C406 49.99 434 49.99 437.5 49.99C439.91 49.99 441.87 48.03 441.87 45.62C441.87 45.18 441.87 41.68 441.87 41.24C441.87 36.52 439.35 32.42 435.61 30.1C436.08 28.88 437.71 24.6 437.95 23.99ZM411.25 28.12L416.09 31.25L418.44 35.15L415.31 46.87L411.25 28.12ZM421.56 35.15L423.91 31.25L428.75 28.12L424.69 46.87L421.56 35.15ZM427.15 20.98C426.16 21.89 422.46 23.17 420.9 18.54C420.62 17.72 419.39 17.72 419.11 18.54C417.45 23.44 413.64 21.71 412.86 20.98C411.93 20.12 411.62 18.88 411.25 17.72C411.17 17.48 410.64 17.16 410.64 17.16C410.64 17.05 410.64 16.21 410.64 16.1C413.4 16.45 416.59 16.67 420.01 16.67C423.43 16.67 426.62 16.46 429.38 16.1C429.38 16.21 429.38 17.05 429.38 17.16C429.37 17.16 428.84 17.47 428.76 17.72C428.38 18.88 428.08 20.12 427.15 20.98Z" id="aMbiUZuc"></path><path d="M633.78 232.45C632.55 231.49 630.81 231.47 629.59 232.45C626.3 235.09 620.29 235.09 616.95 232.32C615.77 231.35 614.08 231.53 612.89 232.48C609.59 235.09 603.61 235.08 600.29 232.33C599.12 231.36 597.4 231.56 596.2 232.5C594.86 233.56 593.08 234.25 591.19 234.45C590.51 234.52 590.01 235.13 590.01 235.81C590.01 236.09 590.01 238.33 590.01 238.61C590.01 239.4 590.67 240.06 591.46 240C593.96 239.78 596.33 239.01 598.35 237.75C603.26 240.75 610.25 240.71 615.02 237.75C619.92 240.75 626.91 240.71 631.68 237.75C633.71 238.98 636.1 239.77 638.55 239.99C639.34 240.06 640 239.39 640 238.6C640 238.32 640 236.13 640 235.85C640.01 235.16 639.51 234.52 638.8 234.44C636.94 234.23 635.15 233.53 633.78 232.45ZM633.78 219.95C632.55 218.99 630.81 218.97 629.59 219.95C626.3 222.59 620.29 222.59 616.95 219.82C615.77 218.85 614.08 219.03 612.89 219.98C609.59 222.59 603.61 222.58 600.29 219.83C599.12 218.86 597.4 219.06 596.2 220.01C594.86 221.06 593.08 221.75 591.19 221.95C590.51 222.02 590.01 222.63 590.01 223.31C590.01 223.59 590.01 225.83 590.01 226.11C590.01 226.9 590.67 227.57 591.46 227.5C593.96 227.28 596.33 226.51 598.35 225.25C603.26 228.25 610.25 228.21 615.02 225.25C619.92 228.25 626.91 228.21 631.68 225.25C633.71 226.48 636.1 227.27 638.55 227.49C639.34 227.56 640 226.89 640 226.1C640 225.82 640 223.63 640 223.36C640.01 222.66 639.51 222.02 638.8 221.94C636.94 221.73 635.15 221.03 633.78 219.95ZM633.78 207.45C632.55 206.49 630.81 206.47 629.59 207.45C626.3 210.09 620.29 210.09 616.95 207.32C615.77 206.35 614.08 206.53 612.89 207.48C609.59 210.09 603.61 210.08 600.29 207.33C599.12 206.36 597.4 206.56 596.2 207.51C594.86 208.57 593.08 209.25 591.19 209.45C590.51 209.52 590.01 210.13 590.01 210.81C590.01 211.09 590.01 213.33 590.01 213.61C590.01 214.4 590.67 215.07 591.46 215C593.96 214.78 596.33 214.01 598.35 212.75C603.26 215.75 610.25 215.71 615.02 212.75C619.92 215.75 626.91 215.71 631.68 212.75C633.71 213.98 636.1 214.77 638.55 214.99C639.34 215.06 640 214.39 640 213.6C640 213.33 640 211.13 640 210.86C640.01 210.16 639.51 209.52 638.8 209.44C636.94 209.23 635.15 208.53 633.78 207.45Z" id="c2OoFi75a"></path><path d="M146.79 510.75C146.92 510.03 146.36 509.37 145.63 509.37C145.15 509.37 142.71 509.37 138.33 509.37C139.19 504.58 139.66 501.91 139.76 501.38C139.89 500.66 139.33 500 138.6 500C138.21 500 135.03 500 134.64 500C134.07 500 133.58 500.41 133.48 500.97C133.38 501.53 132.88 504.33 131.98 509.37L122.35 509.37C123.2 504.58 123.68 501.91 123.78 501.38C123.9 500.66 123.35 500 122.62 500C122.23 500 119.05 500 118.65 500C118.09 500 117.6 500.41 117.5 500.97C117.4 501.53 116.9 504.33 116 509.37C111.36 509.37 108.79 509.37 108.28 509.37C107.71 509.37 107.22 509.78 107.12 510.34C107.05 510.73 106.49 513.86 106.42 514.25C106.3 514.97 106.85 515.62 107.58 515.62C108.06 515.62 110.5 515.62 114.88 515.62L112.65 528.12C108.02 528.12 105.44 528.12 104.93 528.12C104.36 528.12 103.87 528.53 103.77 529.09C103.7 529.48 103.15 532.61 103.08 533C102.95 533.72 103.5 534.37 104.23 534.37C104.72 534.37 107.15 534.37 111.54 534.37C110.68 539.17 110.2 541.84 110.11 542.37C109.98 543.09 110.53 543.75 111.26 543.75C111.66 543.75 114.83 543.75 115.23 543.75C115.8 543.75 116.28 543.34 116.38 542.78C116.48 542.22 116.98 539.42 117.88 534.37L127.52 534.37C126.66 539.17 126.18 541.84 126.09 542.37C125.96 543.09 126.51 543.75 127.24 543.75C127.64 543.75 130.81 543.75 131.21 543.75C131.78 543.75 132.26 543.34 132.36 542.78C132.46 542.22 132.96 539.42 133.86 534.37C138.5 534.37 141.07 534.37 141.59 534.37C142.16 534.37 142.64 533.97 142.74 533.41C142.81 533.02 143.37 529.89 143.44 529.5C143.57 528.78 143.02 528.12 142.29 528.12C141.8 528.12 139.36 528.12 134.98 528.12L137.21 515.62C141.85 515.62 144.42 515.62 144.94 515.62C145.5 515.62 145.99 515.22 146.09 514.66C146.23 513.88 146.72 511.14 146.79 510.75ZM119 528.12L121.23 515.62L130.86 515.62L128.63 528.12L119 528.12Z" id="c2dWYGYm95"></path><path d="M295.78 520C295.78 533.38 306.62 544.22 320 544.22C333.38 544.22 344.22 533.38 344.22 520C344.22 506.62 333.38 495.78 320 495.78C306.62 495.78 295.78 506.62 295.78 520ZM326.93 531.8C326.64 532.1 326.43 532.46 326.33 532.85C326.18 533.4 326.06 533.96 325.86 534.5C325.69 534.96 324.33 538.62 324.16 539.07C322.82 539.37 321.43 539.53 320 539.53C320 539.26 320 537.12 320 536.86C320.17 535.62 319.25 533.32 317.79 531.85C317.2 531.27 316.88 530.47 316.88 529.64C316.88 529.33 316.88 526.83 316.88 526.52C316.88 525.38 316.26 524.33 315.27 523.79C313.86 523.01 311.87 521.92 310.5 521.24C309.38 520.67 308.34 519.95 307.41 519.11C307.4 519.1 307.34 519.05 307.33 519.04C306.67 518.44 306.07 517.76 305.57 517.02C304.65 515.67 303.16 513.46 302.19 512.02C304.19 507.58 307.79 504.01 312.27 502.07C312.5 502.19 314.38 503.13 314.61 503.24C315.65 503.76 316.88 503.01 316.88 501.85C316.88 501.74 316.88 500.85 316.88 500.74C317.66 500.62 318.45 500.54 319.26 500.51C319.53 500.78 321.74 502.99 322.02 503.27C322.63 503.88 322.63 504.87 322.02 505.48C321.99 505.51 321.84 505.66 321.56 505.94C320.96 506.54 320.62 506.88 320.55 506.95C320.25 507.25 320.25 507.75 320.55 508.05C320.6 508.1 320.96 508.46 321.01 508.51C321.32 508.81 321.32 509.31 321.01 509.61C320.93 509.69 320.31 510.32 320.23 510.4C320.08 510.54 319.88 510.62 319.68 510.62C319.59 510.62 318.89 510.62 318.8 510.62C318.6 510.62 318.4 510.7 318.25 510.85C318.16 510.94 317.38 511.69 317.29 511.79C317.04 512.03 316.98 512.39 317.13 512.7C317.28 513 318.5 515.44 318.65 515.74C318.91 516.26 318.54 516.87 317.96 516.87C317.9 516.87 317.46 516.87 317.4 516.87C317.22 516.87 317.03 516.81 316.89 516.68C316.8 516.6 316.08 515.97 315.99 515.9C315.57 515.53 314.99 515.42 314.47 515.59C314.16 515.69 311.73 516.51 311.42 516.61C310.95 516.77 310.63 517.21 310.63 517.71C310.63 518.16 310.88 518.56 311.27 518.76C311.38 518.81 312.25 519.25 312.35 519.3C313.27 519.76 314.29 520 315.31 520C316.34 520 317.52 522.66 318.44 523.12C319.09 523.12 324.31 523.12 324.96 523.12C325.79 523.12 326.58 523.45 327.17 524.04C327.3 524.17 328.37 525.24 328.5 525.38C329.06 525.93 329.38 526.69 329.38 527.48C329.38 528.69 328.89 529.85 328.04 530.7C327.66 531.08 327.26 531.48 326.93 531.8ZM335.12 520.81C334.95 520.55 333.54 518.44 333.37 518.17C332.84 517.39 332.84 516.36 333.37 515.58C333.56 515.29 335.09 512.99 335.28 512.71C335.51 512.37 335.82 512.09 336.18 511.91C336.31 511.85 337.32 511.34 337.45 511.28C338.77 513.91 339.53 516.86 339.53 520C339.53 520.85 339.46 521.68 339.35 522.49C339.16 522.45 338.21 522.21 336.5 521.78C335.8 521.46 335.34 521.13 335.12 520.81Z" id="b4m7hxtU9"></path><path d="M527.9 529.51C531.17 537.47 532.99 541.9 533.35 542.79C533.73 543.71 533.3 544.74 532.43 545.13C531.95 545.34 528.11 547.01 527.63 547.22C526.73 547.61 525.73 547.17 525.35 546.27C525.01 545.43 523.28 541.23 520.17 533.66C515.09 538.89 512.27 541.79 511.71 542.37C510.58 543.53 508.75 542.63 508.75 541.11C508.75 536.92 508.75 503.35 508.75 499.15C508.75 497.55 510.7 496.77 511.71 497.9C514.48 500.75 536.7 523.61 539.48 526.46C540.6 527.56 539.77 529.51 538.26 529.51C536.88 529.51 533.43 529.51 527.9 529.51Z" id="j1ncETSRM4"></path><path d="M315 329.9C315 328.63 315.1 329.22 308.35 315.72C306.98 312.96 303.03 312.95 301.65 315.72C294.84 329.33 295 328.67 295 329.9C295 329.9 295 329.9 295 329.9C295 333.35 299.48 336.15 305 336.15C310.52 336.15 315 333.35 315 329.9C315 329.9 315 329.9 315 329.9ZM310.63 328.65L299.38 328.65L305 317.4L310.63 328.65ZM338.35 315.72C336.97 312.96 333.03 312.95 331.65 315.72C324.84 329.33 325 328.67 325 329.9C325 329.9 325 329.9 325 329.9C325 333.35 329.48 336.15 335 336.15C340.52 336.15 345 333.35 345 329.9C345 329.9 345 329.9 345 329.9C345.07 329.44 342.85 324.72 338.35 315.72ZM335 317.4L340.62 328.65L329.37 328.65L335 317.4ZM322.5 338.65C322.5 324.83 322.5 317.16 322.5 315.62C324.34 314.82 325.72 313.16 326.12 311.15C327.14 311.15 335.24 311.15 336.25 311.15C336.94 311.15 337.5 310.59 337.5 309.9C337.5 309.65 337.5 307.65 337.5 307.4C337.5 306.71 336.94 306.15 336.25 306.15C335.12 306.15 326.1 306.15 324.97 306.15C323.83 304.64 322.04 303.65 320 303.65C317.96 303.65 316.17 304.64 315.03 306.15C313.9 306.15 304.88 306.15 303.75 306.15C303.06 306.15 302.5 306.71 302.5 307.4C302.5 307.65 302.5 309.65 302.5 309.9C302.5 310.59 303.06 311.15 303.75 311.15C304.76 311.15 312.86 311.15 313.88 311.15C314.28 313.16 315.66 314.82 317.5 315.62C317.5 317.16 317.5 324.83 317.5 338.65C309.25 338.65 304.67 338.65 303.75 338.65C303.06 338.65 302.5 339.21 302.5 339.9C302.5 340.15 302.5 342.15 302.5 342.4C302.5 343.09 303.06 343.65 303.75 343.65C307 343.65 333 343.65 336.25 343.65C336.94 343.65 337.5 343.09 337.5 342.4C337.5 342.15 337.5 340.15 337.5 339.9C337.5 339.21 336.94 338.65 336.25 338.65C334.42 338.65 329.83 338.65 322.5 338.65Z" id="h41i1hKhy"></path><path d="M541.66 317.08C541.14 313.23 539.63 309.7 537.37 306.75C537.5 306.64 538.51 305.74 538.64 305.63C539.31 305.04 539.35 303.99 538.71 303.36C538.5 303.15 536.85 301.5 536.64 301.29C536.01 300.65 534.96 300.68 534.37 301.36C534.26 301.49 533.36 302.5 533.25 302.62C530.3 300.37 526.77 298.86 522.92 298.34C522.93 298.17 523.01 296.83 523.02 296.66C523.08 295.76 522.36 295 521.46 295C521.17 295 518.83 295 518.54 295C517.64 295 516.92 295.76 516.98 296.66C516.99 296.83 517.07 298.17 517.08 298.34C513.23 298.86 509.7 300.37 506.75 302.63C506.64 302.5 505.74 301.49 505.63 301.36C505.04 300.68 503.99 300.65 503.36 301.29C503.15 301.5 501.5 303.15 501.29 303.36C500.65 303.99 500.68 305.04 501.36 305.63C501.49 305.74 502.5 306.64 502.62 306.75C500.37 309.7 498.86 313.23 498.34 317.08C498.17 317.07 496.83 316.99 496.66 316.98C495.76 316.92 495 317.64 495 318.54C495 318.83 495 321.17 495 321.46C495 322.36 495.76 323.08 496.66 323.02C496.83 323.01 498.17 322.93 498.34 322.92C498.86 326.77 500.37 330.3 502.62 333.25C502.5 333.36 501.49 334.26 501.36 334.37C500.68 334.96 500.65 336.01 501.29 336.64C501.5 336.85 503.15 338.5 503.36 338.71C503.99 339.35 505.04 339.32 505.63 338.64C505.74 338.51 506.64 337.5 506.75 337.37C509.7 339.63 513.23 341.14 517.08 341.66C517.07 341.83 516.99 343.17 516.98 343.34C516.92 344.24 517.64 345 518.54 345C518.83 345 521.17 345 521.46 345C522.36 345 523.08 344.24 523.02 343.34C523.01 343.17 522.93 341.83 522.92 341.66C526.77 341.14 530.3 339.63 533.25 337.37C533.36 337.5 534.26 338.51 534.37 338.64C534.96 339.32 536.01 339.35 536.64 338.71C536.85 338.5 538.5 336.85 538.71 336.64C539.35 336.01 539.32 334.96 538.64 334.37C538.51 334.26 537.5 333.36 537.38 333.25C539.63 330.3 541.14 326.77 541.66 322.92C541.83 322.93 543.17 323.01 543.34 323.02C544.24 323.08 545 322.36 545 321.46C545 321.17 545 318.83 545 318.54C545 317.64 544.24 316.92 543.34 316.98C543 317 541.83 317.07 541.66 317.08ZM529.09 307.34C528.67 307.81 525.34 311.59 524.93 312.06C524.07 311.53 523.14 311.13 522.13 310.89C522.16 310.47 522.29 308.39 522.52 304.63C525.62 305.52 527.81 306.42 529.09 307.34ZM517.87 310.89C516.86 311.13 515.93 311.53 515.07 312.06C514.66 311.59 511.33 307.81 510.91 307.34C512.82 305.96 515.05 305.03 517.48 304.63C517.55 305.88 517.83 310.27 517.87 310.89ZM512.06 315.07C511.53 315.93 511.13 316.86 510.89 317.87C510.27 317.83 505.26 317.52 504.63 317.48C505.03 315.05 505.96 312.83 507.34 310.91C508.29 311.74 511.59 314.66 512.06 315.07ZM510.89 322.13C511.13 323.14 511.53 324.07 512.06 324.93C511.59 325.34 507.81 328.67 507.34 329.09C505.96 327.17 505.03 324.95 504.63 322.52C505.88 322.45 510.27 322.17 510.89 322.13ZM510.91 332.66C511.33 332.19 514.66 328.41 515.07 327.94C515.92 328.47 516.86 328.87 517.87 329.11C517.84 329.53 517.71 331.61 517.48 335.37C514.38 334.48 512.19 333.58 510.91 332.66ZM516.87 320C516.87 318.27 518.27 316.88 520 316.88C521.73 316.88 523.12 318.27 523.12 320C523.12 321.73 521.73 323.12 520 323.12C518.27 323.12 516.87 321.73 516.87 320ZM522.13 329.11C523.14 328.87 524.07 328.47 524.93 327.94C525.34 328.41 528.67 332.19 529.09 332.66C527.17 334.04 524.95 334.97 522.52 335.37C522.44 334.12 522.17 329.73 522.13 329.11ZM527.94 324.93C528.47 324.07 528.87 323.14 529.11 322.13C529.73 322.17 534.74 322.48 535.37 322.52C534.97 324.95 534.04 327.17 532.66 329.09C531.71 328.26 528.41 325.34 527.94 324.93ZM527.94 315.07C528.41 314.66 532.18 311.33 532.66 310.91C534.04 312.83 534.97 315.05 535.37 317.48C534.95 317.5 532.86 317.63 529.11 317.87C528.68 316.57 528.29 315.64 527.94 315.07Z" id="c1yrskiOwO"></path><path d="M307.92 149.92L298.85 149.92L298.85 120.71L307.92 120.71L307.92 149.92ZM298.13 111.42C298.13 108.52 300.48 106.17 303.38 106.17C306.28 106.17 308.63 108.52 308.63 111.42C308.63 114.32 306.28 116.72 303.38 116.72C300.48 116.72 298.13 114.32 298.13 111.42ZM341.86 149.92L332.81 149.92C332.81 141.38 332.81 136.64 332.81 135.7C332.81 132.31 332.75 127.96 328.1 127.96C323.38 127.96 322.66 131.64 322.66 135.45C322.66 136.42 322.66 141.24 322.66 149.92L313.6 149.92L313.6 120.71L322.3 120.71L322.3 124.69C322.37 124.69 322.42 124.69 322.43 124.69C323.64 122.4 326.59 119.97 331.01 119.97C340.19 119.97 341.87 126.02 341.87 133.87C341.87 134.94 341.87 140.29 341.87 149.92L341.86 149.92Z" id="e4pgm4B8oN"></path><path d="M103.97 138.41C101.44 138.41 99.38 136.34 99.38 133.81C99.38 131.28 101.44 129.22 103.97 129.22C104.28 129.22 105.81 129.22 108.57 129.22L108.57 133.81C107.19 136.88 105.66 138.41 103.97 138.41ZM115.48 129.22C118.01 129.22 120.07 131.28 120.07 133.81C120.07 134.96 120.07 144.17 120.07 145.32C120.07 147.85 118.01 149.92 115.48 149.92C112.95 149.92 110.88 147.85 110.88 145.32C110.88 144.55 110.88 140.72 110.88 133.81C112.26 130.75 113.79 129.22 115.48 129.22ZM110.88 110.76C110.88 108.23 112.95 106.17 115.48 106.17C118.01 106.17 120.07 108.23 120.07 110.76C120.07 111.07 120.07 112.6 120.07 115.36L115.48 115.36C112.42 113.98 110.88 112.45 110.88 110.76ZM120.07 122.27C120.07 124.8 118.01 126.87 115.48 126.87C114.33 126.87 105.12 126.87 103.97 126.87C101.44 126.87 99.38 124.8 99.38 122.27C99.38 119.74 101.44 117.67 103.97 117.67C104.74 117.67 108.57 117.67 115.48 117.67C118.54 119.05 120.07 120.58 120.07 122.27ZM138.53 117.67C141.06 117.67 143.12 119.74 143.12 122.27C143.12 124.8 141.06 126.87 138.53 126.87C138.22 126.87 136.69 126.87 133.93 126.87L133.93 122.27C135.31 119.21 136.84 117.67 138.53 117.67ZM127.02 126.87C124.49 126.87 122.43 124.8 122.43 122.27C122.43 121.12 122.43 111.91 122.43 110.76C122.43 108.23 124.49 106.17 127.02 106.17C129.55 106.17 131.62 108.23 131.62 110.76C131.62 111.53 131.62 115.36 131.62 122.27C130.24 125.33 128.71 126.87 127.02 126.87ZM131.62 145.32C131.62 147.85 129.55 149.92 127.02 149.92C124.49 149.92 122.43 147.85 122.43 145.32C122.43 145.01 122.43 143.48 122.43 140.72L127.02 140.72C130.09 142.1 131.62 143.63 131.62 145.32ZM122.43 133.81C122.43 131.28 124.49 129.22 127.02 129.22C128.17 129.22 137.38 129.22 138.53 129.22C141.06 129.22 143.12 131.28 143.12 133.81C143.12 136.34 141.06 138.41 138.53 138.41C137.76 138.41 133.93 138.41 127.02 138.41C123.96 137.03 122.43 135.5 122.43 133.81Z" id="a3kt3A4iz"></path><path d="M119.28 301.06C107.19 318.74 124.38 319.53 124.38 328.12C124.38 331.6 121.53 334.42 118.04 334.37C114.61 334.33 111.88 331.47 111.88 328.03C111.88 327.2 111.88 320.52 111.88 319.68C111.88 317.56 109.29 316.53 107.83 318.07C105.22 320.82 102.5 325.52 102.5 331.25C102.5 341.59 110.91 350 121.25 350C131.59 350 140 341.59 140 331.25C140 314.62 123.59 312.4 123.59 302.33C123.59 300.01 120.6 299.13 119.28 301.06Z" id="aQ1jAbDNU"></path><path d="M511.15 140.89C508.63 140.89 507.57 137.55 507.57 135.51C507.57 133.47 508.63 130.13 511.15 130.13C513.67 130.13 514.74 133.47 514.74 135.51C514.74 137.55 513.67 140.89 511.15 140.89ZM541.73 139.86C538.03 147.34 527.85 147.16 520.57 147.16C513.16 147.16 502.38 147.42 498.54 139.86C497.11 137.02 496.56 133.69 496.56 130.58C496.56 126.49 497.92 122.62 500.62 119.49C500.11 117.94 499.86 116.32 499.86 114.72C499.86 112.62 500.34 111.57 501.29 109.66C505.71 109.66 508.55 110.54 511.91 113.18C514.75 112.5 517.66 112.2 520.58 112.2C523.21 112.2 525.87 112.48 528.43 113.1C531.75 110.49 534.58 109.66 538.95 109.66C539.91 111.57 540.38 112.62 540.38 114.72C540.38 116.32 540.13 117.91 539.63 119.43C542.31 122.59 543.44 126.49 543.44 130.58C543.44 133.69 543.12 137 541.73 139.86ZM529.98 127.44C528.13 127.44 526.37 127.78 524.51 128.03C523.06 128.25 521.6 128.34 520.11 128.34C518.62 128.34 517.17 128.25 515.7 128.03C513.88 127.78 512.09 127.44 510.23 127.44C505.66 127.44 503.06 131.22 503.06 135.51C503.06 144.08 510.91 145.4 517.74 145.4C518.21 145.4 521.98 145.4 522.45 145.4C529.32 145.4 537.16 144.09 537.16 135.51C537.16 131.22 534.55 127.44 529.98 127.44ZM525.51 135.51C525.51 137.55 526.57 140.89 529.09 140.89C531.61 140.89 532.68 137.55 532.68 135.51C532.68 133.47 531.61 130.13 529.09 130.13C526.57 130.13 525.51 133.47 525.51 135.51Z" id="ciP8ZOb0D"></path></defs><g><g><g><use xlink:href="#b18WRWTVyJ" opacity="1" fill="#000000" fill-opacity="1"></use><g><use xlink:href="#b18WRWTVyJ" opacity="1" fill-opacity="0" stroke="#000000" stroke-width="1" stroke-opacity="0"></use></g></g><g><use xlink:href="#gtUfTr9jR" opacity="1" fill="#000000" fill-opacity="1"></use><g><use xlink:href="#gtUfTr9jR" opacity="1" fill-opacity="0" stroke="#000000" stroke-width="1" stroke-opacity="0"></use></g></g><g><use xlink:href="#c8hfvoU7at" opacity="1" fill="#000000" fill-opacity="1"></use><g><use xlink:href="#c8hfvoU7at" opacity="1" fill-opacity="0" stroke="#000000" stroke-width="1" stroke-opacity="0"></use></g></g><g><use xlink:href="#d2g94TjgB" opacity="1" fill="#000000" fill-opacity="1"></use><g><use xlink:href="#d2g94TjgB" opacity="1" fill-opacity="0" stroke="#000000" stroke-width="1" stroke-opacity="0"></use></g></g><g><use xlink:href="#a1HOI2j2Ii" opacity="1" fill="#000000" fill-opacity="1"></use><g><use xlink:href="#a1HOI2j2Ii" opacity="1" fill-opacity="0" stroke="#000000" stroke-width="1" stroke-opacity="0"></use></g></g><g><use xlink:href="#ed3YNs3vG" opacity="1" fill="#000000" fill-opacity="1"></use><g><use xlink:href="#ed3YNs3vG" opacity="1" fill-opacity="0" stroke="#000000" stroke-width="1" stroke-opacity="0"></use></g></g><g><use xlink:href="#b19sILGZX" opacity="1" fill="#000000" fill-opacity="1"></use><g><use xlink:href="#b19sILGZX" opacity="1" fill-opacity="0" stroke="#000000" stroke-width="1" stroke-opacity="0"></use></g></g><g><use xlink:href="#cJLKf2vU" opacity="1" fill="#000000" fill-opacity="1"></use><g><use xlink:href="#cJLKf2vU" opacity="1" fill-opacity="0" stroke="#000000" stroke-width="1" stroke-opacity="0"></use></g></g><g><use xlink:href="#c10XAxzRYL" opacity="1" fill="#000000" fill-opacity="1"></use><g><use xlink:href="#c10XAxzRYL" opacity="1" fill-opacity="0" stroke="#000000" stroke-width="1" stroke-opacity="0"></use></g></g><g><use xlink:href="#a1pJeR462G" opacity="1" fill="#000000" fill-opacity="1"></use><g><use xlink:href="#a1pJeR462G" opacity="1" fill-opacity="0" stroke="#000000" stroke-width="1" stroke-opacity="0"></use></g></g><g><use xlink:href="#b5MfGuVSuW" opacity="1" fill="#000000" fill-opacity="1"></use><g><use xlink:href="#b5MfGuVSuW" opacity="1" fill-opacity="0" stroke="#000000" stroke-width="1" stroke-opacity="0"></use></g></g><g><use xlink:href="#f1ttKCWibL" opacity="1" fill="#000000" fill-opacity="1"></use><g><use xlink:href="#f1ttKCWibL" opacity="1" fill-opacity="0" stroke="#000000" stroke-width="1" stroke-opacity="0"></use></g></g><g><use xlink:href="#fyo2DlDxM" opacity="1" fill="#000000" fill-opacity="1"></use><g><use xlink:href="#fyo2DlDxM" opacity="1" fill-opacity="0" stroke="#000000" stroke-width="1" stroke-opacity="0"></use></g></g><g><use xlink:href="#d1yjM0RsVz" opacity="1" fill="#000000" fill-opacity="1"></use><g><use xlink:href="#d1yjM0RsVz" opacity="1" fill-opacity="0" stroke="#000000" stroke-width="1" stroke-opacity="0"></use></g></g><g><use xlink:href="#aMbiUZuc" opacity="1" fill="#000000" fill-opacity="1"></use><g><use xlink:href="#aMbiUZuc" opacity="1" fill-opacity="0" stroke="#000000" stroke-width="1" stroke-opacity="0"></use></g></g><g><g><filter id="shadow152330" x="581.01" y="197.68" width="68.99" height="52.32" filterUnits="userSpaceOnUse" primitiveUnits="userSpaceOnUse"><feFlood></feFlood><feComposite in2="SourceAlpha" operator="in"></feComposite><feGaussianBlur stdDeviation="1"></feGaussianBlur><feOffset dx="1" dy="1" result="afterOffset"></feOffset><feFlood flood-color="#000000" flood-opacity="0.5"></feFlood><feComposite in2="afterOffset" operator="in"></feComposite><feMorphology operator="dilate" radius="1"></feMorphology><feComposite in2="SourceAlpha" operator="out"></feComposite></filter><path d="M633.78 232.45C632.55 231.49 630.81 231.47 629.59 232.45C626.3 235.09 620.29 235.09 616.95 232.32C615.77 231.35 614.08 231.53 612.89 232.48C609.59 235.09 603.61 235.08 600.29 232.33C599.12 231.36 597.4 231.56 596.2 232.5C594.86 233.56 593.08 234.25 591.19 234.45C590.51 234.52 590.01 235.13 590.01 235.81C590.01 236.09 590.01 238.33 590.01 238.61C590.01 239.4 590.67 240.06 591.46 240C593.96 239.78 596.33 239.01 598.35 237.75C603.26 240.75 610.25 240.71 615.02 237.75C619.92 240.75 626.91 240.71 631.68 237.75C633.71 238.98 636.1 239.77 638.55 239.99C639.34 240.06 640 239.39 640 238.6C640 238.32 640 236.13 640 235.85C640.01 235.16 639.51 234.52 638.8 234.44C636.94 234.23 635.15 233.53 633.78 232.45ZM633.78 219.95C632.55 218.99 630.81 218.97 629.59 219.95C626.3 222.59 620.29 222.59 616.95 219.82C615.77 218.85 614.08 219.03 612.89 219.98C609.59 222.59 603.61 222.58 600.29 219.83C599.12 218.86 597.4 219.06 596.2 220.01C594.86 221.06 593.08 221.75 591.19 221.95C590.51 222.02 590.01 222.63 590.01 223.31C590.01 223.59 590.01 225.83 590.01 226.11C590.01 226.9 590.67 227.57 591.46 227.5C593.96 227.28 596.33 226.51 598.35 225.25C603.26 228.25 610.25 228.21 615.02 225.25C619.92 228.25 626.91 228.21 631.68 225.25C633.71 226.48 636.1 227.27 638.55 227.49C639.34 227.56 640 226.89 640 226.1C640 225.82 640 223.63 640 223.36C640.01 222.66 639.51 222.02 638.8 221.94C636.94 221.73 635.15 221.03 633.78 219.95ZM633.78 207.45C632.55 206.49 630.81 206.47 629.59 207.45C626.3 210.09 620.29 210.09 616.95 207.32C615.77 206.35 614.08 206.53 612.89 207.48C609.59 210.09 603.61 210.08 600.29 207.33C599.12 206.36 597.4 206.56 596.2 207.51C594.86 208.57 593.08 209.25 591.19 209.45C590.51 209.52 590.01 210.13 590.01 210.81C590.01 211.09 590.01 213.33 590.01 213.61C590.01 214.4 590.67 215.07 591.46 215C593.96 214.78 596.33 214.01 598.35 212.75C603.26 215.75 610.25 215.71 615.02 212.75C619.92 215.75 626.91 215.71 631.68 212.75C633.71 213.98 636.1 214.77 638.55 214.99C639.34 215.06 640 214.39 640 213.6C640 213.33 640 211.13 640 210.86C640.01 210.16 639.51 209.52 638.8 209.44C636.94 209.23 635.15 208.53 633.78 207.45Z" id="b2fLpnDeAT" fill="white" fill-opacity="1" filter="url(#shadow152330)"></path></g><use xlink:href="#c2OoFi75a" opacity="1" fill="#000000" fill-opacity="1"></use><g><use xlink:href="#c2OoFi75a" opacity="1" fill-opacity="0" stroke="#000000" stroke-width="1" stroke-opacity="0"></use></g><g><filter id="shadow16192962" x="581.01" y="197.68" width="68.99" height="52.32" filterUnits="userSpaceOnUse" primitiveUnits="userSpaceOnUse"><feFlood></feFlood><feComposite in2="SourceAlpha" operator="out"></feComposite><feGaussianBlur stdDeviation="1"></feGaussianBlur><feOffset dx="1" dy="1" result="afterOffset"></feOffset><feFlood flood-color="#000000" flood-opacity="0.5"></feFlood><feComposite in2="afterOffset" operator="in"></feComposite><feMorphology operator="dilate" radius="1"></feMorphology><feComposite in2="SourceAlpha" operator="in"></feComposite></filter><path d="M633.78 232.45C632.55 231.49 630.81 231.47 629.59 232.45C626.3 235.09 620.29 235.09 616.95 232.32C615.77 231.35 614.08 231.53 612.89 232.48C609.59 235.09 603.61 235.08 600.29 232.33C599.12 231.36 597.4 231.56 596.2 232.5C594.86 233.56 593.08 234.25 591.19 234.45C590.51 234.52 590.01 235.13 590.01 235.81C590.01 236.09 590.01 238.33 590.01 238.61C590.01 239.4 590.67 240.06 591.46 240C593.96 239.78 596.33 239.01 598.35 237.75C603.26 240.75 610.25 240.71 615.02 237.75C619.92 240.75 626.91 240.71 631.68 237.75C633.71 238.98 636.1 239.77 638.55 239.99C639.34 240.06 640 239.39 640 238.6C640 238.32 640 236.13 640 235.85C640.01 235.16 639.51 234.52 638.8 234.44C636.94 234.23 635.15 233.53 633.78 232.45ZM633.78 219.95C632.55 218.99 630.81 218.97 629.59 219.95C626.3 222.59 620.29 222.59 616.95 219.82C615.77 218.85 614.08 219.03 612.89 219.98C609.59 222.59 603.61 222.58 600.29 219.83C599.12 218.86 597.4 219.06 596.2 220.01C594.86 221.06 593.08 221.75 591.19 221.95C590.51 222.02 590.01 222.63 590.01 223.31C590.01 223.59 590.01 225.83 590.01 226.11C590.01 226.9 590.67 227.57 591.46 227.5C593.96 227.28 596.33 226.51 598.35 225.25C603.26 228.25 610.25 228.21 615.02 225.25C619.92 228.25 626.91 228.21 631.68 225.25C633.71 226.48 636.1 227.27 638.55 227.49C639.34 227.56 640 226.89 640 226.1C640 225.82 640 223.63 640 223.36C640.01 222.66 639.51 222.02 638.8 221.94C636.94 221.73 635.15 221.03 633.78 219.95ZM633.78 207.45C632.55 206.49 630.81 206.47 629.59 207.45C626.3 210.09 620.29 210.09 616.95 207.32C615.77 206.35 614.08 206.53 612.89 207.48C609.59 210.09 603.61 210.08 600.29 207.33C599.12 206.36 597.4 206.56 596.2 207.51C594.86 208.57 593.08 209.25 591.19 209.45C590.51 209.52 590.01 210.13 590.01 210.81C590.01 211.09 590.01 213.33 590.01 213.61C590.01 214.4 590.67 215.07 591.46 215C593.96 214.78 596.33 214.01 598.35 212.75C603.26 215.75 610.25 215.71 615.02 212.75C619.92 215.75 626.91 215.71 631.68 212.75C633.71 213.98 636.1 214.77 638.55 214.99C639.34 215.06 640 214.39 640 213.6C640 213.33 640 211.13 640 210.86C640.01 210.16 639.51 209.52 638.8 209.44C636.94 209.23 635.15 208.53 633.78 207.45Z" id="bosDcKvig" fill="white" fill-opacity="1" filter="url(#shadow16192962)"></path></g></g><g><use xlink:href="#c2dWYGYm95" opacity="1" fill="#000000" fill-opacity="1"></use><g><use xlink:href="#c2dWYGYm95" opacity="1" fill-opacity="0" stroke="#000000" stroke-width="1" stroke-opacity="0"></use></g></g><g><use xlink:href="#b4m7hxtU9" opacity="1" fill="#000000" fill-opacity="1"></use><g><use xlink:href="#b4m7hxtU9" opacity="1" fill-opacity="0" stroke="#000000" stroke-width="1" stroke-opacity="0"></use></g></g><g><use xlink:href="#j1ncETSRM4" opacity="1" fill="#000000" fill-opacity="1"></use><g><use xlink:href="#j1ncETSRM4" opacity="1" fill-opacity="0" stroke="#000000" stroke-width="1" stroke-opacity="0"></use></g></g><g><use xlink:href="#h41i1hKhy" opacity="1" fill="#000000" fill-opacity="1"></use><g><use xlink:href="#h41i1hKhy" opacity="1" fill-opacity="0" stroke="#000000" stroke-width="1" stroke-opacity="0"></use></g></g><g><use xlink:href="#c1yrskiOwO" opacity="1" fill="#000000" fill-opacity="1"></use><g><use xlink:href="#c1yrskiOwO" opacity="1" fill-opacity="0" stroke="#000000" stroke-width="1" stroke-opacity="0"></use></g></g><g><use xlink:href="#e4pgm4B8oN" opacity="1" fill="#000000" fill-opacity="1"></use><g><use xlink:href="#e4pgm4B8oN" opacity="1" fill-opacity="0" stroke="#000000" stroke-width="1" stroke-opacity="0"></use></g></g><g><use xlink:href="#a3kt3A4iz" opacity="1" fill="#000000" fill-opacity="1"></use><g><use xlink:href="#a3kt3A4iz" opacity="1" fill-opacity="0" stroke="#000000" stroke-width="1" stroke-opacity="0"></use></g></g><g><use xlink:href="#aQ1jAbDNU" opacity="1" fill="#000000" fill-opacity="1"></use><g><use xlink:href="#aQ1jAbDNU" opacity="1" fill-opacity="0" stroke="#000000" stroke-width="1" stroke-opacity="0"></use></g></g><g><use xlink:href="#ciP8ZOb0D" opacity="1" fill="#000000" fill-opacity="1"></use><g><use xlink:href="#ciP8ZOb0D" opacity="1" fill-opacity="0" stroke="#000000" stroke-width="1" stroke-opacity="0"></use></g></g></g></g></svg>